# xmcd CD database file
#
# Track frame offsets:
#	150
#	16177
#	33091
#	51234
#	67357
#	84684
#	100242
#	118353
#	132271
#	144734
#	163383
#	178804
#	196979
#	213831
#	229944
#	245721
#	261920
#	276830
#	298510
#	313032
#
# Disc length: 4404 seconds
#
# Revision: 0
# Processed by: cddbd v1.5.2PL0 Copyright (c) Steve Scherf et al.
# Submitted via: CDex 1.51
#
DISCID=3e113214
DTITLE=Diverse - Tollhaus - Joker 1
DYEAR=2005
DGENRE=Schlager
TTITLE0=Marc Pircher - Sieben Sünden
TTITLE1=Ibo - Schwarze Rose
TTITLE2=Frank Lars - Wie Ein Wolf
TTITLE3=Matthias Reim and Bonnie Tyler - Vergiss Es (Forget It)
TTITLE4=Marco Kloss - Der Typ Neben Ihr
TTITLE5=Bernhard Brink - Du Hast Mich Verhext
TTITLE6=Jürgen Drews - Flying Through The Air
TTITLE7=Rosanna Rocci - Arrivederci Hans
TTITLE8=Zellberg Buam - Tirolerzeit
TTITLE9=Nik P. - Ein Stern, Der Deinen Namen Trägt
TTITLE10=Andreas - Zusammen Sind Wir Ein Feuer
TTITLE11=Umberto Tozzi and Nockalm Quintett - Tu (Gefühl Geht Volles Risiko)
TTITLE12=Matthias Reim - Verdammt, Ich Lieb' Dich... Immer Noch
TTITLE13=Werner Müller - Reg I...
TTITLE14=Hansi Sussenbach - Doch Wenn Du Gehst
TTITLE15=Andreas Martin - Niemals Zu Alt
TTITLE16=Claudia Jung - Ich Kann Für Nichts Mehr Garantier'n
TTITLE17=John Travolta and Olivia Newton-John - The Grease Mega Mix
TTITLE18=Hermes House Band - Hit The Road Jack
TTITLE19=Boris Bukowski - Trag Meine Liebe Wie Einen Mantel
EXTD=YEAR: 2005
EXTT0=
EXTT1=
EXTT2=
EXTT3=
EXTT4=
EXTT5=
EXTT6=
EXTT7=
EXTT8=
EXTT9=
EXTT10=
EXTT11=
EXTT12=
EXTT13=
EXTT14=
EXTT15=
EXTT16=
EXTT17=
EXTT18=
EXTT19=
PLAYORDER=
